<svg width="962" height="433" viewBox="0 0 962 433" fill="none" xmlns="http://www.w3.org/2000/svg">
<g clip-path="url(#clip0)">
<path d="M164.444 136.847L118.194 250.931L27.75 22.7639L44.1944 18.6528L118.194 208.792H119.222L148 135.819L105.861 29.9583L120.25 26.875L164.444 136.847ZM342.25 29.9583L235.361 301.292H212.75L171.639 195.431L129.5 301.292H106.889L0 29.9583L15.4167 26.875L118.194 286.903H119.222L171.639 155.347L223.028 286.903H225.083L327.861 26.875L342.25 29.9583ZM314.5 22.7639L224.056 250.931L133.611 22.7639L149.028 18.6528L223.028 208.792H225.083L299.083 18.6528L314.5 22.7639Z" fill="white"/>
<path d="M495.389 318.764C495.389 334.181 492.306 348.569 485.111 362.958C477.917 376.319 467.639 386.597 455.306 394.819C442.972 403.042 428.583 407.153 413.167 407.153C398.778 407.153 383.361 403.042 366.917 395.847L373.083 381.458C385.417 389.681 398.778 392.764 411.111 392.764C424.472 392.764 435.778 389.681 447.083 382.486C457.361 375.292 465.583 366.042 471.75 354.736C477.917 343.431 481 331.097 481 318.764V287.931L479.972 286.903C467.639 297.181 451.194 302.319 430.639 302.319C415.222 302.319 399.806 298.208 386.444 291.014C372.056 283.819 361.778 274.569 353.556 261.208C345.333 248.875 341.222 234.486 341.222 218.042V100.875H355.611V218.042C355.611 238.597 362.806 255.042 377.194 268.403C392.611 281.764 410.083 287.931 430.639 287.931C444 287.931 456.333 284.847 468.667 279.708C482.028 273.542 490.25 265.319 495.389 255.042V318.764ZM522.111 317.736C522.111 338.292 516.972 356.792 507.722 375.292C498.472 392.764 486.139 407.153 469.694 417.431C453.25 427.708 434.75 432.847 414.194 432.847C394.667 432.847 375.139 428.736 355.611 418.458L360.75 405.097C378.222 414.347 395.694 418.458 413.167 418.458C431.667 418.458 447.083 414.347 461.472 405.097C475.861 395.847 487.167 383.514 495.389 368.097C503.611 352.681 507.722 336.236 507.722 317.736V100.875H522.111V317.736ZM495.389 213.931C495.389 227.292 492.306 237.569 487.167 246.819C482.028 256.069 473.806 263.264 463.528 268.403C454.278 273.542 442.972 276.625 430.639 276.625C412.139 276.625 397.75 270.458 385.417 259.153C374.111 247.847 367.944 232.431 367.944 213.931V100.875H381.306V214.958C381.306 229.347 386.444 240.653 395.694 248.875C404.944 258.125 416.25 262.236 430.639 262.236C446.056 262.236 457.361 258.125 467.639 248.875C476.889 240.653 481 229.347 481 214.958V100.875H495.389V213.931Z" fill="white"/>
<path d="M574.528 298.208H560.139V100.875H574.528V298.208ZM650.583 134.792C640.306 134.792 632.083 136.847 624.889 140.958C616.667 145.069 611.528 150.208 606.389 157.403C602.278 164.597 600.222 172.819 600.222 183.097V298.208H585.833V183.097C585.833 170.764 588.917 159.458 595.083 150.208C600.222 140.958 607.417 134.792 617.694 129.653C627.972 124.514 638.25 121.431 650.583 121.431V134.792ZM650.583 110.125C638.25 110.125 625.917 113.208 613.583 118.347C600.222 124.514 592 131.708 585.833 143.014V100.875H600.222V110.125L601.25 111.153C607.417 106.014 614.611 101.903 623.861 98.8194C632.083 96.7639 641.333 95.7361 650.583 95.7361V110.125Z" fill="white"/>
<path d="M829.417 185.153H723.556V170.764H808.861L809.889 169.736C803.722 159.458 795.5 151.236 785.222 144.042C774.944 137.875 764.667 134.792 752.333 134.792C741.028 134.792 730.75 137.875 720.472 144.042C710.194 149.181 703 157.403 696.833 166.653C690.667 176.931 688.611 187.208 688.611 198.514C688.611 210.847 690.667 221.125 696.833 230.375C703 240.653 710.194 248.875 720.472 254.014C730.75 260.181 741.028 263.264 752.333 263.264C759.528 263.264 767.75 261.208 774.944 259.153C782.139 256.069 789.333 250.931 795.5 245.792L804.75 256.069C789.333 270.458 771.861 277.653 752.333 277.653C737.944 277.653 725.611 273.542 713.278 266.347C701.972 259.153 691.694 249.903 684.5 237.569C678.333 225.236 674.222 212.903 674.222 198.514C674.222 185.153 678.333 172.819 684.5 160.486C691.694 148.153 701.972 138.903 713.278 131.708C725.611 124.514 737.944 121.431 752.333 121.431C770.833 121.431 787.278 127.597 801.667 138.903C816.056 151.236 825.306 165.625 829.417 185.153ZM858.194 204.681V210.847H723.556V197.486H843.806C842.778 181.042 838.667 166.653 830.444 153.292C822.222 139.931 810.917 128.625 797.556 121.431C783.167 113.208 767.75 110.125 752.333 110.125C735.889 110.125 720.472 113.208 706.083 121.431C692.722 129.653 681.417 139.931 673.194 154.319C664.972 167.681 661.889 183.097 661.889 198.514C661.889 211.875 663.944 223.181 668.056 233.458C673.194 244.764 679.361 254.014 687.583 262.236C695.806 271.486 706.083 277.653 717.389 281.764C727.667 286.903 740 288.958 752.333 288.958C762.611 288.958 773.917 286.903 785.222 282.792C796.528 278.681 805.778 272.514 814 265.319L822.222 275.597C812.972 284.847 801.667 291.014 789.333 296.153C777 301.292 764.667 303.347 752.333 303.347C737.944 303.347 724.583 300.264 711.222 295.125C698.889 289.986 687.583 282.792 677.306 272.514C668.056 263.264 659.833 251.958 654.694 239.625C649.556 227.292 646.472 212.903 646.472 198.514C646.472 180.014 651.611 162.542 660.861 147.125C670.111 130.681 683.472 118.347 699.917 109.097C715.333 99.8472 732.806 94.7083 752.333 94.7083C766.722 94.7083 781.111 97.7916 793.444 102.931C806.806 109.097 818.111 116.292 827.361 126.569C837.639 136.847 844.833 149.181 849.972 162.542C855.111 174.875 858.194 189.264 858.194 204.681Z" fill="white"/>
<path fill-rule="evenodd" clip-rule="evenodd" d="M466.611 16.5972L445.028 9.40279L429.611 52.5695L451.194 59.7639C463.528 63.875 476.889 57.7083 481 46.4028C485.111 34.0695 477.917 20.7083 466.611 16.5972ZM431.667 36.125L405.972 26.875C403.917 26.875 401.861 27.9028 400.833 29.9583C399.806 30.9861 400.833 34.0695 402.889 34.0695L428.583 43.3195L431.667 36.125ZM438.861 16.5972L412.139 7.34723C410.083 6.31946 408.028 7.34723 408.028 9.40279C407 11.4583 408.028 13.5139 410.083 14.5417L435.778 23.7917L438.861 16.5972Z" fill="white"/>
<path fill-rule="evenodd" clip-rule="evenodd" d="M611.528 357.819C713.278 361.931 844.833 376.319 914.722 283.819C957.889 227.292 971.25 154.319 932.194 94.7083C888 27.9028 829.417 6.31944 765.694 7.34722C640.306 8.37499 621.806 89.5694 481 50.5139L483.056 44.3472C608.444 81.3472 643.389 3.2361 764.667 0.152772C803.722 -0.875006 842.778 6.31944 877.722 28.9305C917.806 55.6528 942.472 89.5694 954.806 126.569C967.139 164.597 963.028 206.736 946.583 244.764C884.917 383.514 738.972 368.097 611.528 365.014V357.819Z" fill="white"/>
<path fill-rule="evenodd" clip-rule="evenodd" d="M602.278 351.653H570.417V372.208H602.278V368.097H616.667V355.764H602.278V351.653ZM565.278 359.875H546.778V362.958H565.278V359.875ZM570.417 355.764H566.306V368.097H570.417V355.764Z" fill="white"/>
</g>
<defs>
<clipPath id="clip0">
<rect width="962" height="433" fill="white"/>
</clipPath>
</defs>
</svg>
